<svg id="visual" viewBox="0 0 900 600" width="900" height="600" xmlns="http://www.w3.org/2000/svg" xmlns:xlink="http://www.w3.org/1999/xlink" version="1.1">
<rect x="0" y="0" width="900" height="600" fill="#463B33"></rect>
<path d="M0 430L129 424L257 443L386 411L514 434L643 433L771 408L900 388L900 601L771 601L643 601L514 601L386 601L257 601L129 601L0 601Z" fill="#749f55"></path>
<path d="M0 404L129 405L257 462L386 428L514 424L643 397L771 395L900 457L900 601L771 601L643 601L514 601L386 601L257 601L129 601L0 601Z" fill="#87ad53"></path>
<path d="M0 455L129 499L257 448L386 479L514 443L643 499L771 471L900 443L900 601L771 601L643 601L514 601L386 601L257 601L129 601L0 601Z" fill="#9cba4f"></path>
<path d="M0 512L129 511L257 510L386 530L514 511L643 493L771 538L900 487L900 601L771 601L643 601L514 601L386 601L257 601L129 601L0 601Z" fill="#b4c74b"></path>
<path d="M0 549L129 541L257 531L386 564L514 552L643 558L771 555L900 529L900 601L771 601L643 601L514 601L386 601L257 601L129 601L0 601Z" fill="#ced346"></path>
</svg>